#!OML:ASF F:\twosubjects\two\wednesday\Session 1\rory1.ASF
:FULLY-SPECIFIED
:DEGREES
66
root 0.192308 18.4637 16.6848 -175.595 -6.07896 -183.831
lowerback 1.45284 -0.465979 -7.50314
upperback 1.09791 -0.745805 -0.0871772
thorax 0.412818 -0.437569 4.12539
lowerneck -8.9362 -6.48258 -7.11317
upperneck 24.7819 -11.5609 6.74895
head 10.1502 -5.95444 2.08393
rclavicle -1.13742e-014 2.78299e-015
rhumerus -25.6165 -42.7757 -59.9889
rradius 53.3966
rwrist -30.2255
rhand -41.8183 51.6975
rfingers 7.12502
rthumb -14.7201 22.2401
lclavicle -1.13742e-014 2.78299e-015
lhumerus -30.8707 2.16643 83.6851
lradius 39.4209
lwrist 8.03716
lhand -22.7177 18.1341
lfingers 7.12502
lthumb 3.71572 48.0815
rfemur -27.7185 1.44918 13.0913
rtibia 59.022
rfoot -9.84627 -9.80102
rtoes 1.97927
lfemur -8.74455 -3.46385 -30.5192
ltibia 27.1578
lfoot -16.054 -0.510549
ltoes -6.12913
67
root 0.17152 18.4597 16.5168 -175.443 -6.51276 -183.946
lowerback 1.42363 -0.541949 -7.57093
upperback 1.04003 -0.845911 -0.070466
thorax 0.383493 -0.484584 4.18159
lowerneck -8.68329 -6.66452 -7.10005
upperneck 24.6129 -11.8507 6.81529
head 10.0682 -6.08971 2.07826
rclavicle -9.34288e-015 5.2181e-015
rhumerus -25.3752 -43.1234 -60.2489
rradius 53.7155
rwrist -30.7057
rhand -41.7662 51.4624
rfingers 7.12502
rthumb -14.6699 22.0013
lclavicle -9.34288e-015 5.2181e-015
lhumerus -30.2423 1.43527 83.9232
lradius 40.311
lwrist 8.36973
lhand -23.0826 16.316
lfingers 7.12502
lthumb 3.36338 46.2692
rfemur -28.3402 1.64573 12.9505
rtibia 57.2099
rfoot -9.93757 -10.5326
rtoes 3.62541
lfemur -8.0422 -3.56114 -30.6336
ltibia 26.727
lfoot -16.1624 -0.843458
ltoes -5.58038
68
root 0.155897 18.4636 16.3543 -175.21 -7.10368 -183.946
lowerback 1.37226 -0.65807 -7.70542
upperback 1.0462 -0.993203 0.0919063
thorax 0.443649 -0.56027 4.42597
lowerneck -8.76863 -6.87498 -7.20099
upperneck 24.5719 -12.1532 6.9337
head 10.1101 -6.21806 2.09189
rclavicle 4.02539e-015 1.09332e-015
rhumerus -24.8144 -43.4399 -60.6258
rradius 53.9503
rwrist -30.9816
rhand -42.5605 52.406
rfingers 7.12502
rthumb -15.4351 23.0023
lclavicle 4.02539e-015 1.09332e-015
lhumerus -29.3794 0.795315 84.2997
lradius 41.1432
lwrist 8.64368
lhand -23.1788 15.8055
lfingers 7.12502
lthumb 3.27042 45.7602
rfemur -28.9107 1.84738 12.9329
rtibia 55.1841
rfoot -10.1797 -11.0841
rtoes 6.14389
lfemur -7.51357 -3.6073 -30.5844
ltibia 26.287
lfoot -16.1865 -1.42082
ltoes -6.8174
69
root 0.136692 18.4683 16.1884 -175.013 -7.62343 -184.253
lowerback 1.4839 -0.734101 -8.09414
upperback 0.985509 -1.11075 0.171432
thorax 0.343834 -0.615489 4.73045
lowerneck -9.04489 -6.98735 -7.59896
upperneck 24.8792 -12.3825 7.25154
head 10.3437 -6.32168 2.21809
rclavicle 1.21259e-014 1.08338e-014
rhumerus -24.4105 -43.5743 -60.8712
rradius 54.0521
rwrist -31.2863
rhand -43.1654 54.3467
rfingers 7.12502
rthumb -16.0176 24.9888
lclavicle 1.21259e-014 1.08338e-014
lhumerus -28.7951 0.0504377 84.7157
lradius 42.0919
lwrist 9.07363
lhand -23.5628 16.395
lfingers 7.12502
lthumb 2.89955 46.355
rfemur -29.2815 2.13946 12.5347
rtibia 52.9806
rfoot -10.2612 -11.5003
rtoes 6.63859
lfemur -6.8969 -3.14758 -30.8409
ltibia 25.8549
lfoot -16.373 -2.27575
ltoes -7.23215
70
root 0.11674 18.4657 16.0217 -174.82 -8.0617 -184.681
lowerback 1.95802 -0.798271 -8.49884
upperback 0.648223 -1.26047 0.17478
thorax -0.242045 -0.655791 4.97584
lowerneck -9.09606 -7.0472 -7.94084
upperneck 25.3057 -12.5515 7.3388
head 10.5547 -6.43594 2.27058
rclavicle 7.20594e-015 1.53064e-014
rhumerus -24.5969 -43.2105 -60.8687
rradius 54.279
rwrist -31.8258
rhand -42.9734 54.9407
rfingers 7.12502
rthumb -15.8328 25.5681
lclavicle 7.20594e-015 1.53064e-014
lhumerus -28.7189 -0.611996 85.0336
lradius 43.0566
lwrist 9.41273
lhand -23.861 17.1221
lfingers 7.12502
lthumb 2.61158 47.0859
rfemur -29.5112 2.50353 11.9823
rtibia 50.5914
rfoot -9.37236 -11.9865
rtoes 3.32581
lfemur -6.18073 -2.40639 -31.173
ltibia 25.3768
lfoot -16.3711 -2.82069
ltoes -7.21144
71
root 0.0951258 18.474 15.8524 -174.516 -8.54158 -184.767
lowerback 1.38139 -0.913315 -8.47843
upperback 0.879421 -1.34749 0.201147
thorax 0.33551 -0.731589 4.97804
lowerneck -9.29948 -7.24564 -7.94461
upperneck 25.1041 -12.7456 7.35739
head 10.5404 -6.49596 2.24517
rclavicle -3.8266e-015 1.05356e-014
rhumerus -23.7494 -43.3606 -61.7316
rradius 54.4434
rwrist -31.8495
rhand -43.4895 54.9077
rfingers 7.12502
rthumb -16.3297 25.5752
lclavicle -3.8266e-015 1.05356e-014
lhumerus -27.6168 -1.257 85.2242
lradius 43.7779
lwrist 9.61877
lhand -23.8559 18.6108
lfingers 7.12502
lthumb 2.61656 48.5745
rfemur -29.8598 2.80983 11.7836
rtibia 48.0465
rfoot -9.83295 -12.4531
rtoes 3.2698
lfemur -5.54905 -2.13504 -31.1469
ltibia 24.7903
lfoot -16.1532 -3.16875
ltoes -6.63889
72
root 0.0718497 18.4853 15.6791 -174.251 -9.03936 -184.486
lowerback 1.04545 -0.96317 -8.15332
upperback 0.825724 -1.37362 0.32517
thorax 0.467734 -0.743864 4.91824
lowerneck -8.91845 -7.44024 -7.8264
upperneck 24.8377 -13.0455 7.35201
head 10.3876 -6.63658 2.20251
rclavicle -6.70898e-015 4.37326e-015
rhumerus -23.5849 -43.5493 -62.0221
rradius 54.4121
rwrist -31.7455
rhand -44.5609 56.3656
rfingers 7.12502
rthumb -17.361 27.121
lclavicle -6.70898e-015 4.37326e-015
lhumerus -26.9648 -1.99768 85.4345
lradius 44.3921
lwrist 9.72365
lhand -24.1119 19.436
lfingers 7.12502
lthumb 2.36927 49.4026
rfemur -30.1157 3.02409 11.988
rtibia 45.3972
rfoot -9.39066 -12.8127
rtoes 2.2519
lfemur -4.86727 -2.17624 -30.7795
ltibia 24.0993
lfoot -16.0035 -3.32769
ltoes -7.12324
73
root 0.0512863 18.4949 15.5077 -173.974 -9.55307 -184.445
lowerback 0.571083 -1.105 -8.04496
upperback 0.837846 -1.51445 0.38673
thorax 0.766454 -0.824712 4.91023
lowerneck -8.44435 -7.5375 -7.87452
upperneck 24.583 -13.2228 7.45261
head 10.2303 -6.73338 2.24554
rclavicle 4.22417e-016 -2.00773e-014
rhumerus -23.1587 -43.8722 -62.4848
rradius 54.29
rwrist -32.0878
rhand -44.5905 57.1068
rfingers 7.12502
rthumb -17.3896 27.8647
lclavicle 4.22417e-016 -2.00773e-014
lhumerus -26.3384 -2.43377 85.4833
lradius 44.9534
lwrist 9.83632
lhand -24.651 16.799
lfingers 7.12502
lthumb 1.84865 46.7707
rfemur -30.2718 3.34776 11.8747
rtibia 42.6977
rfoot -10.1143 -13.0634
rtoes 4.76548
lfemur -4.10889 -2.29023 -30.6784
ltibia 23.3439
lfoot -15.8508 -3.2631
ltoes -9.22736
74
root 0.0307606 18.4977 15.3369 -173.497 -9.95608 -184.884
lowerback -0.038136 -1.27063 -8.32461
upperback 0.928058 -1.67632 0.309045
thorax 1.23266 -0.930345 4.9684
lowerneck -8.50923 -7.60721 -8.06606
upperneck 24.5719 -13.3154 7.59126
head 10.2719 -6.77188 2.30842
rclavicle -1.68718e-014 -9.93923e-015
rhumerus -22.3109 -44.1812 -63.3034
rradius 54.1851
rwrist -32.5615
rhand -44.4904 57.0856
rfingers 7.12502
rthumb -17.2932 27.835
lclavicle -1.68718e-014 -9.93923e-015
lhumerus -25.5668 -2.83643 85.4851
lradius 45.5648
lwrist 10.1448
lhand -24.7901 14.1366
lfingers 7.12502
lthumb 1.71432 44.1095
rfemur -30.5644 3.69039 11.1736
rtibia 39.9671
rfoot -10.2201 -13.238
rtoes 6.3897
lfemur -3.50151 -2.15294 -31.0804
ltibia 22.5661
lfoot -15.7725 -3.43241
ltoes -11.4241
75
root 0.00727285 18.4873 15.1648 -173.05 -10.3345 -185.194
lowerback -0.287638 -1.29495 -8.47926
upperback 0.921894 -1.68477 0.253181
thorax 1.37109 -0.941805 4.99081
lowerneck -8.85983 -7.8479 -8.03268
upperneck 24.6469 -13.6427 7.6153
head 10.3976 -6.89319 2.24766
rclavicle 2.51463e-014 9.54166e-015
rhumerus -21.792 -44.3088 -63.881
rradius 54.0678
rwrist -33.0204
rhand -44.8526 57.7671
rfingers 7.12502
rthumb -17.6419 28.5475
lclavicle 2.51463e-014 9.54166e-015
lhumerus -24.8443 -3.49581 85.6432
lradius 46.1976
lwrist 10.3734
lhand -24.8774 14.2812
lfingers 7.12502
lthumb 1.62993 44.2547
rfemur -30.7616 3.96271 10.6549
rtibia 37.2222
rfoot -9.52693 -13.5136
rtoes 5.87943
lfemur -2.86495 -1.7895 -31.3275
ltibia 21.6879
lfoot -15.5671 -4.03123
ltoes -10.0263
76
root -0.0161599 18.488 14.9908 -172.776 -10.8711 -185.245
lowerback -0.421519 -1.36489 -8.42424
upperback 0.937438 -1.7637 0.291789
thorax 1.47402 -0.984987 4.99456
lowerneck -8.96286 -8.08736 -8.07505
upperneck 24.4797 -13.9744 7.79018
head 10.4054 -7.01713 2.26497
rclavicle 1.51573e-014 5.56597e-015
rhumerus -21.3409 -44.3645 -64.4153
rradius 53.9283
rwrist -33.4216
rhand -45.1793 58.1966
rfingers 7.12502
rthumb -17.9562 29.0056
lclavicle 1.51573e-014 5.56597e-015
lhumerus -24.172 -3.96825 85.7929
lradius 46.7576
lwrist 10.3094
lhand -24.9346 14.8011
lfingers 7.12502
lthumb 1.5747 44.7751
rfemur -30.7635 4.43705 10.4022
rtibia 34.479
rfoot -9.00672 -14.1427
rtoes 5.04073
lfemur -1.97016 -1.6049 -31.2251
ltibia 20.7134
lfoot -14.9342 -4.44665
ltoes -13.0837
77
root -0.0351723 18.4956 14.8155 -172.495 -11.4218 -185.403
lowerback -0.73749 -1.53449 -8.51659
upperback 0.981061 -1.95554 0.356603
thorax 1.73206 -1.09378 5.09917
lowerneck -8.83831 -8.18613 -8.52133
upperneck 24.2215 -14.1214 8.25228
head 10.3735 -7.07659 2.48376
rclavicle -3.03644e-014 -3.57812e-015
rhumerus -20.6646 -44.455 -65.1087
rradius 53.6636
rwrist -33.4101
rhand -45.6293 58.7381
rfingers 7.12502
rthumb -18.3891 29.5873
lclavicle -3.03644e-014 -3.57812e-015
lhumerus -23.5912 -4.20552 85.8847
lradius 47.338
lwrist 10.3736
lhand -24.9205 14.8283
lfingers 7.12502
lthumb 1.58834 44.8021
rfemur -30.7745 4.98177 9.99328
rtibia 31.7177
rfoot -8.65217 -14.7937
rtoes 5.28311
lfemur -1.0432 -1.43774 -31.1834
ltibia 19.7535
lfoot -14.4238 -4.975
ltoes -13.0997
78
root -0.0540692 18.4949 14.6404 -172.233 -11.8442 -185.632
lowerback -0.793061 -1.64202 -8.67726
upperback 0.882887 -2.09428 0.41599
thorax 1.69103 -1.1596 5.24714
lowerneck -8.6689 -8.28088 -8.92501
upperneck 24.0767 -14.2658 8.55796
head 10.3593 -7.15317 2.64214
rclavicle 1.26725e-014 2.06736e-014
rhumerus -20.2431 -44.319 -65.6064
rradius 53.3034
rwrist -33.4096
rhand -45.8388 59.6434
rfingers 7.12502
rthumb -18.5906 30.5118
lclavicle 1.26725e-014 2.06736e-014
lhumerus -23.2878 -4.46687 86.021
lradius 47.9733
lwrist 10.6085
lhand -25.1301 15.1715
lfingers 7.12502
lthumb 1.38595 45.1467
rfemur -30.7365 5.47091 9.49706
rtibia 28.9857
rfoot -8.19854 -15.1743
rtoes 5.57822
lfemur -0.0869443 -1.47488 -31.2903
ltibia 18.7508
lfoot -13.8651 -5.17147
ltoes -11.9061
79
root -0.0772301 18.4929 14.4649 -172.07 -12.2151 -185.72
lowerback -0.649621 -1.63575 -8.67037
upperback 0.689493 -2.10682 0.422768
thorax 1.41075 -1.14659 5.25799
lowerneck -8.19984 -8.41493 -8.86925
upperneck 23.8958 -14.5371 8.63454
head 10.2333 -7.29331 2.64528
rclavicle 2.04251e-014 -1.78906e-014
rhumerus -20.439 -44.2244 -65.7514
rradius 53.0341
rwrist -33.6549
rhand -45.611 59.0842
rfingers 7.12502
rthumb -18.3715 29.9317
lclavicle 2.04251e-014 -1.78906e-014
lhumerus -23.0994 -4.98439 86.1542
lradius 48.3947
lwrist 10.7831
lhand -25.3484 15.0106
lfingers 7.12502
lthumb 1.17507 44.9871
rfemur -30.6355 6.33512 9.01529
rtibia 26.4405
rfoot -8.15472 -15.7235
rtoes 5.56353
lfemur 0.968584 -1.72195 -31.3041
ltibia 17.6608
lfoot -13.5608 -5.09392
ltoes -10.0835
